<?xml version="1.0" standalone="no"?>
<!DOCTYPE svg PUBLIC "-//W3C//DTD SVG 20010904//EN"
 "http://www.w3.org/TR/2001/REC-SVG-20010904/DTD/svg10.dtd">
<svg version="1.0" xmlns="http://www.w3.org/2000/svg"
 width="800.000000pt" height="800.000000pt" viewBox="0 0 800.000000 800.000000"
 preserveAspectRatio="xMidYMid meet">
<metadata>
Created by potrace 1.14, written by Peter Selinger 2001-2017
</metadata>
<g transform="translate(0.000000,800.000000) scale(0.100000,-0.100000)"
fill="#000000" stroke="none">
<path d="M3470 7979 c-221 -100 -196 -424 38 -490 131 -37 278 44 317 175 20
67 19 105 -6 170 -24 65 -96 136 -157 154 -60 18 -141 14 -192 -9z"/>
<path d="M4205 7976 c-55 -25 -109 -80 -133 -135 -9 -21 -15 -64 -15 -102 0
-144 115 -259 258 -259 171 0 299 169 251 332 -44 152 -218 231 -361 164z"/>
<path d="M2955 7471 c-92 -42 -157 -162 -137 -255 25 -120 114 -196 230 -196
104 0 177 45 218 135 74 159 -40 335 -216 335 -32 0 -72 -8 -95 -19z"/>
<path d="M4785 7466 c-60 -28 -87 -56 -114 -116 -39 -85 -24 -181 39 -253 48
-54 105 -79 182 -78 201 1 306 243 169 394 -71 79 -178 99 -276 53z"/>
<path d="M3930 7341 c-179 -55 -235 -266 -106 -395 99 -99 234 -98 338 2 67
63 87 187 45 269 -51 97 -177 154 -277 124z"/>
<path d="M2643 6765 c-161 -81 -176 -298 -28 -405 47 -34 53 -35 136 -35 81 0
90 2 130 30 24 17 57 53 74 80 26 42 30 58 30 120 0 62 -4 78 -30 121 -66 105
-202 145 -312 89z"/>
<path d="M5096 6770 c-57 -29 -85 -58 -112 -115 -57 -121 0 -270 123 -322 18
-7 61 -13 96 -13 212 0 311 258 155 407 -18 18 -50 39 -70 47 -52 22 -144 20
-192 -4z"/>
<path d="M3500 6724 c-101 -44 -168 -171 -141 -271 51 -189 283 -251 409 -107
66 74 80 171 38 259 -28 60 -56 87 -116 114 -54 25 -140 27 -190 5z"/>
<path d="M4312 6715 c-122 -38 -192 -162 -162 -287 16 -66 95 -151 155 -167
133 -36 256 25 300 150 45 126 -28 265 -159 304 -59 18 -78 18 -134 0z"/>
<path d="M2332 6069 c-50 -25 -107 -88 -123 -136 -6 -19 -9 -64 -7 -99 3 -50
10 -72 34 -106 48 -69 103 -101 178 -106 79 -5 127 10 178 56 57 51 81 104 81
177 0 96 -58 183 -145 219 -54 23 -144 20 -196 -5z"/>
<path d="M5402 6064 c-107 -53 -156 -173 -117 -283 22 -63 51 -98 108 -131 84
-48 194 -40 270 20 40 31 77 101 83 156 23 189 -172 324 -344 238z"/>
<path d="M3210 6015 c-25 -8 -63 -31 -84 -52 -132 -128 -87 -338 85 -398 131
-47 279 37 308 175 38 179 -133 332 -309 275z"/>
<path d="M4628 6021 c-48 -16 -99 -53 -128 -93 -135 -186 54 -439 271 -363 63
23 104 58 133 117 59 118 12 263 -105 323 -35 19 -134 28 -171 16z"/>
<path d="M3917 5814 c-69 -21 -131 -86 -152 -159 -28 -95 -1 -183 77 -249 177
-151 441 24 377 251 -19 68 -88 136 -158 157 -65 19 -81 19 -144 0z"/>
<path d="M2035 5343 c-152 -80 -170 -276 -33 -369 25 -17 64 -34 87 -38 144
-23 279 122 242 260 -16 59 -63 118 -113 143 -53 25 -139 28 -183 4z"/>
<path d="M5735 5342 c-192 -92 -152 -370 58 -406 122 -22 247 90 247 220 0 49
-50 135 -98 168 -55 39 -146 47 -207 18z"/>
<path d="M2943 5309 c-57 -10 -93 -31 -135 -77 -46 -51 -61 -99 -56 -178 3
-50 10 -72 34 -106 48 -69 103 -101 178 -106 80 -5 127 10 179 57 53 47 77
101 77 174 0 69 -19 120 -63 165 -57 59 -134 85 -214 71z"/>
<path d="M4953 5309 c-149 -28 -234 -201 -164 -337 92 -178 344 -176 427 2 83
179 -68 371 -263 335z"/>
<path d="M3597 5034 c-100 -31 -177 -149 -163 -250 24 -175 217 -268 365 -176
93 57 136 184 97 287 -23 59 -101 129 -160 144 -57 14 -79 13 -139 -5z"/>
<path d="M4244 5036 c-62 -20 -110 -62 -140 -122 -23 -48 -26 -63 -22 -125 7
-86 38 -138 112 -183 204 -126 445 103 330 314 -34 62 -76 96 -140 116 -57 17
-86 17 -140 0z"/>
<path d="M1746 4636 c-145 -54 -182 -241 -69 -348 30 -29 100 -58 138 -58 38
0 108 29 139 58 103 96 79 272 -45 337 -41 22 -119 27 -163 11z"/>
<path d="M6066 4636 c-57 -21 -88 -47 -116 -97 -76 -135 24 -304 180 -304 145
0 248 151 191 281 -27 60 -45 81 -93 105 -52 27 -115 32 -162 15z"/>
<path d="M2615 4611 c-111 -29 -178 -116 -179 -231 0 -78 24 -131 84 -182 179
-154 447 25 378 253 -14 50 -69 114 -118 139 -43 22 -122 32 -165 21z"/>
<path d="M5247 4604 c-56 -17 -119 -75 -143 -131 -21 -48 -22 -137 -2 -183 24
-55 68 -101 123 -126 159 -74 335 38 335 213 -1 166 -155 278 -313 227z"/>
<path d="M3245 4222 c-165 -79 -166 -299 -1 -384 60 -31 151 -22 208 19 64 46
90 102 86 184 -4 76 -32 127 -94 169 -49 33 -142 39 -199 12z"/>
<path d="M4545 4222 c-165 -79 -166 -299 -1 -384 31 -16 53 -19 102 -16 116 7
194 91 194 208 0 72 -31 134 -88 175 -55 38 -146 46 -207 17z"/>
<path d="M1435 3914 c-120 -62 -149 -202 -62 -301 100 -114 285 -69 327 81 15
56 3 111 -37 165 -48 63 -160 90 -228 55z"/>
<path d="M6375 3916 c-44 -19 -103 -89 -111 -131 -23 -126 64 -235 190 -235
109 0 186 80 186 193 0 132 -143 226 -265 173z"/>
<path d="M2262 3894 c-178 -89 -175 -342 5 -430 25 -12 60 -18 103 -19 79 0
138 29 186 92 151 198 -72 468 -294 357z"/>
<path d="M5545 3880 c-107 -51 -158 -152 -135 -265 40 -192 285 -254 413 -104
104 120 57 314 -90 376 -47 19 -140 16 -188 -7z"/>
<path d="M2950 3450 c-24 -12 -53 -29 -63 -38 -66 -60 -77 -190 -21 -259 50
-62 98 -84 170 -80 75 3 129 36 163 98 19 34 23 52 19 109 -3 59 -8 74 -34
106 -60 75 -155 101 -234 64z"/>
<path d="M4896 3455 c-82 -29 -144 -124 -133 -205 27 -201 296 -247 378 -65
49 107 -15 243 -128 274 -49 14 -69 13 -117 -4z"/>
<path d="M1103 3185 c-121 -73 -107 -259 25 -317 180 -80 340 159 195 293 -42
40 -66 49 -125 49 -39 0 -64 -7 -95 -25z"/>
<path d="M6675 3186 c-60 -37 -88 -93 -83 -167 8 -116 113 -192 221 -159 111
33 164 159 111 262 -42 81 -169 114 -249 64z"/>
<path d="M2000 3171 c-162 -53 -218 -228 -112 -351 86 -101 225 -107 319 -14
128 128 47 353 -133 369 -27 2 -60 1 -74 -4z"/>
<path d="M5890 3171 c-84 -27 -131 -75 -155 -154 -61 -206 187 -363 352 -222
110 94 94 277 -31 350 -47 27 -125 40 -166 26z"/>
<path d="M2615 2661 c-50 -22 -91 -69 -105 -119 -14 -54 -13 -71 14 -129 55
-118 198 -146 296 -57 46 42 64 89 58 155 -13 128 -145 204 -263 150z"/>
<path d="M5200 2664 c-72 -31 -110 -92 -110 -177 0 -186 257 -251 349 -87 40
72 24 178 -36 232 -50 46 -139 60 -203 32z"/>
<path d="M825 2506 c-94 -42 -131 -153 -82 -246 40 -76 139 -110 220 -76 68
28 115 118 101 191 -20 106 -143 174 -239 131z"/>
<path d="M7022 2512 c-36 -11 -93 -62 -108 -98 -60 -144 86 -291 229 -230 41
17 72 51 92 100 54 128 -77 267 -213 228z"/>
<path d="M1681 2447 c-77 -25 -141 -116 -141 -202 1 -75 71 -164 146 -185 100
-28 193 12 239 103 44 90 25 183 -51 245 -60 50 -122 62 -193 39z"/>
<path d="M6186 2445 c-55 -19 -87 -45 -113 -91 -46 -82 -38 -166 23 -234 125
-138 354 -53 354 132 0 87 -66 175 -147 197 -49 14 -69 13 -117 -4z"/>
<path d="M2290 1858 c-63 -32 -90 -77 -90 -148 0 -73 27 -116 93 -149 62 -31
122 -23 174 22 94 83 79 223 -30 276 -55 27 -92 27 -147 -1z"/>
<path d="M5544 1861 c-73 -33 -112 -109 -94 -185 12 -55 38 -87 93 -115 62
-31 122 -23 174 22 92 81 79 218 -27 274 -52 28 -91 29 -146 4z"/>
<path d="M535 1766 c-66 -30 -102 -104 -83 -173 40 -149 246 -149 286 0 32
118 -91 223 -203 173z"/>
<path d="M7330 1769 c-40 -16 -80 -60 -91 -101 -24 -91 50 -188 143 -188 81 0
148 68 148 150 0 105 -104 177 -200 139z"/>
<path d="M1355 1711 c-106 -66 -128 -189 -47 -274 39 -42 75 -57 132 -57 59 0
97 17 134 60 70 84 50 204 -43 267 -44 30 -132 32 -176 4z"/>
<path d="M6468 1710 c-51 -27 -88 -93 -88 -155 0 -170 221 -240 321 -102 25
34 29 50 29 102 0 52 -4 68 -29 102 -16 22 -45 47 -64 56 -47 23 -123 21 -169
-3z"/>
<path d="M219 1045 c-40 -22 -59 -58 -59 -116 0 -45 4 -55 34 -85 30 -30 40
-34 85 -34 85 0 131 46 131 131 0 35 -6 48 -39 80 -33 34 -45 39 -82 39 -24
-1 -56 -7 -70 -15z"/>
<path d="M1949 1021 c-33 -32 -39 -45 -39 -80 0 -85 46 -131 131 -131 46 0 55
4 84 34 43 46 50 86 26 141 -23 51 -61 75 -122 75 -35 0 -48 -6 -80 -39z"/>
<path d="M5874 1050 c-40 -16 -74 -68 -74 -113 0 -78 49 -126 129 -127 47 0
57 4 86 33 41 41 52 90 31 140 -25 62 -107 94 -172 67z"/>
<path d="M7640 1047 c-13 -7 -35 -28 -48 -47 -35 -52 -26 -113 22 -157 31 -28
43 -33 87 -33 35 0 60 6 79 20 94 67 43 230 -72 230 -24 0 -54 -6 -68 -13z"/>
<path d="M1055 996 c-61 -27 -95 -85 -95 -162 0 -135 154 -217 266 -142 52 35
77 81 77 141 0 74 -34 131 -95 163 -34 18 -113 17 -153 0z"/>
<path d="M6773 985 c-74 -45 -102 -138 -64 -220 22 -48 44 -69 94 -90 48 -20
83 -19 133 4 92 42 129 152 82 241 -47 88 -158 117 -245 65z"/>
<path d="M770 237 c-33 -17 -70 -74 -70 -109 0 -72 58 -128 131 -128 42 0 55
5 85 33 86 79 32 217 -86 217 -19 0 -46 -6 -60 -13z"/>
<path d="M7125 241 c-11 -5 -31 -21 -45 -36 -20 -22 -25 -37 -25 -82 0 -50 3
-57 37 -89 32 -29 45 -34 87 -34 161 0 174 235 14 246 -26 2 -57 0 -68 -5z"/>
</g>
</svg>
